<mxfile host="Electron" modified="2024-11-22T07:20:50.148Z" agent="Mozilla/5.0 (Windows NT 10.0; Win64; x64) AppleWebKit/537.36 (KHTML, like Gecko) draw.io/24.6.4 Chrome/124.0.6367.207 Electron/30.0.6 Safari/537.36" etag="8sFt9X1gCzdWfexQbdxr" version="24.6.4" type="device">
  <diagram name="Page-1" id="3Kc9lttvMLrfxWYGdBB-">
    <mxGraphModel dx="4327" dy="3239" grid="1" gridSize="10" guides="1" tooltips="1" connect="1" arrows="1" fold="1" page="1" pageScale="1" pageWidth="827" pageHeight="1169" math="0" shadow="0">
      <root>
        <mxCell id="0" />
        <mxCell id="1" parent="0" />
        <mxCell id="amnLUIIQ8rCHtN5jiK-m-24" value="" style="group;strokeWidth=2;fontSize=40;" parent="1" vertex="1" connectable="0">
          <mxGeometry x="-250" y="-470" width="970" height="950" as="geometry" />
        </mxCell>
        <mxCell id="amnLUIIQ8rCHtN5jiK-m-1" value="" style="rounded=0;whiteSpace=wrap;html=1;strokeWidth=2;fontSize=40;" parent="amnLUIIQ8rCHtN5jiK-m-24" vertex="1">
          <mxGeometry x="340" y="920" width="630" height="30" as="geometry" />
        </mxCell>
        <mxCell id="amnLUIIQ8rCHtN5jiK-m-2" value="" style="rounded=0;whiteSpace=wrap;html=1;rotation=90;strokeWidth=2;fontSize=40;" parent="amnLUIIQ8rCHtN5jiK-m-24" vertex="1">
          <mxGeometry x="595" y="830" width="120" height="60" as="geometry" />
        </mxCell>
        <mxCell id="amnLUIIQ8rCHtN5jiK-m-3" value="" style="rounded=0;whiteSpace=wrap;html=1;strokeWidth=2;fontSize=40;" parent="amnLUIIQ8rCHtN5jiK-m-24" vertex="1">
          <mxGeometry x="645" y="280" width="20" height="520" as="geometry" />
        </mxCell>
        <mxCell id="amnLUIIQ8rCHtN5jiK-m-4" value="" style="rounded=0;whiteSpace=wrap;html=1;strokeWidth=2;fontSize=40;" parent="amnLUIIQ8rCHtN5jiK-m-24" vertex="1">
          <mxGeometry x="595" y="280" width="120" height="60" as="geometry" />
        </mxCell>
        <mxCell id="amnLUIIQ8rCHtN5jiK-m-5" value="" style="rounded=0;whiteSpace=wrap;html=1;rotation=120;strokeWidth=2;fontSize=40;" parent="amnLUIIQ8rCHtN5jiK-m-24" vertex="1">
          <mxGeometry x="390" y="-80" width="20" height="520" as="geometry" />
        </mxCell>
        <mxCell id="amnLUIIQ8rCHtN5jiK-m-6" value="" style="ellipse;whiteSpace=wrap;html=1;aspect=fixed;strokeWidth=2;fontSize=40;" parent="amnLUIIQ8rCHtN5jiK-m-24" vertex="1">
          <mxGeometry x="605" y="290" width="40" height="40" as="geometry" />
        </mxCell>
        <mxCell id="amnLUIIQ8rCHtN5jiK-m-20" value="" style="rounded=0;whiteSpace=wrap;html=1;strokeWidth=2;fontSize=40;" parent="amnLUIIQ8rCHtN5jiK-m-24" vertex="1">
          <mxGeometry x="130" y="30" width="120" height="60" as="geometry" />
        </mxCell>
        <mxCell id="amnLUIIQ8rCHtN5jiK-m-23" style="edgeStyle=orthogonalEdgeStyle;rounded=0;orthogonalLoop=1;jettySize=auto;html=1;entryX=0.5;entryY=0;entryDx=0;entryDy=0;exitX=0;exitY=0.5;exitDx=0;exitDy=0;endArrow=none;endFill=0;strokeWidth=2;fontSize=40;" parent="amnLUIIQ8rCHtN5jiK-m-24" source="amnLUIIQ8rCHtN5jiK-m-21" target="amnLUIIQ8rCHtN5jiK-m-9" edge="1">
          <mxGeometry relative="1" as="geometry">
            <Array as="points">
              <mxPoint x="90" y="190" />
              <mxPoint x="90" y="190" />
            </Array>
          </mxGeometry>
        </mxCell>
        <mxCell id="amnLUIIQ8rCHtN5jiK-m-21" value="" style="ellipse;whiteSpace=wrap;html=1;aspect=fixed;strokeWidth=2;fontSize=40;" parent="amnLUIIQ8rCHtN5jiK-m-24" vertex="1">
          <mxGeometry x="90" width="120" height="120" as="geometry" />
        </mxCell>
        <mxCell id="amnLUIIQ8rCHtN5jiK-m-22" value="" style="group;strokeWidth=2;fontSize=40;" parent="amnLUIIQ8rCHtN5jiK-m-24" vertex="1" connectable="0">
          <mxGeometry y="480" width="183" height="196.96152422706632" as="geometry" />
        </mxCell>
        <mxCell id="amnLUIIQ8rCHtN5jiK-m-9" value="" style="rounded=0;whiteSpace=wrap;html=1;strokeWidth=2;fontSize=40;" parent="amnLUIIQ8rCHtN5jiK-m-22" vertex="1">
          <mxGeometry x="30" width="120" height="60" as="geometry" />
        </mxCell>
        <mxCell id="amnLUIIQ8rCHtN5jiK-m-19" value="" style="group;strokeWidth=2;fontSize=40;" parent="amnLUIIQ8rCHtN5jiK-m-22" vertex="1" connectable="0">
          <mxGeometry y="10" width="183" height="186.96152422706632" as="geometry" />
        </mxCell>
        <mxCell id="mO8IAX-dW3RhuqRvVJ9K-1" value="" style="rounded=0;whiteSpace=wrap;html=1;strokeWidth=2;" vertex="1" parent="amnLUIIQ8rCHtN5jiK-m-19">
          <mxGeometry x="56" y="50" width="27" height="10" as="geometry" />
        </mxCell>
        <mxCell id="mO8IAX-dW3RhuqRvVJ9K-2" value="" style="rounded=0;whiteSpace=wrap;html=1;strokeWidth=2;" vertex="1" parent="amnLUIIQ8rCHtN5jiK-m-19">
          <mxGeometry x="103" y="50" width="27" height="10" as="geometry" />
        </mxCell>
        <mxCell id="amnLUIIQ8rCHtN5jiK-m-10" value="" style="rounded=0;whiteSpace=wrap;html=1;rotation=-45;strokeWidth=2;fontSize=40;" parent="amnLUIIQ8rCHtN5jiK-m-19" vertex="1">
          <mxGeometry x="-7" y="40" width="120" height="20" as="geometry" />
        </mxCell>
        <mxCell id="amnLUIIQ8rCHtN5jiK-m-12" value="" style="rounded=0;whiteSpace=wrap;html=1;rotation=-45;flipH=1;direction=north;strokeWidth=2;fontSize=40;" parent="amnLUIIQ8rCHtN5jiK-m-19" vertex="1">
          <mxGeometry x="123" y="-10" width="20" height="120" as="geometry" />
        </mxCell>
        <mxCell id="amnLUIIQ8rCHtN5jiK-m-13" value="" style="rounded=0;whiteSpace=wrap;html=1;rotation=-60;flipH=1;flipV=0;direction=east;strokeWidth=2;fontSize=40;" parent="amnLUIIQ8rCHtN5jiK-m-19" vertex="1">
          <mxGeometry x="83" y="120" width="120" height="20" as="geometry" />
        </mxCell>
        <mxCell id="amnLUIIQ8rCHtN5jiK-m-15" value="" style="rounded=0;whiteSpace=wrap;html=1;rotation=-120;flipH=0;flipV=1;direction=west;strokeWidth=2;fontSize=40;" parent="amnLUIIQ8rCHtN5jiK-m-19" vertex="1">
          <mxGeometry x="-17" y="120" width="120" height="20" as="geometry" />
        </mxCell>
        <mxCell id="amnLUIIQ8rCHtN5jiK-m-16" value="" style="ellipse;whiteSpace=wrap;html=1;aspect=fixed;strokeWidth=2;fontSize=40;" parent="amnLUIIQ8rCHtN5jiK-m-19" vertex="1">
          <mxGeometry x="143" y="70" width="40" height="40" as="geometry" />
        </mxCell>
        <mxCell id="amnLUIIQ8rCHtN5jiK-m-17" value="" style="ellipse;whiteSpace=wrap;html=1;aspect=fixed;strokeWidth=2;fontSize=40;" parent="amnLUIIQ8rCHtN5jiK-m-19" vertex="1">
          <mxGeometry y="70" width="40" height="40" as="geometry" />
        </mxCell>
        <mxCell id="amnLUIIQ8rCHtN5jiK-m-18" value="" style="ellipse;whiteSpace=wrap;html=1;aspect=fixed;strokeWidth=2;fontSize=40;" parent="amnLUIIQ8rCHtN5jiK-m-19" vertex="1">
          <mxGeometry x="73" width="40" height="40" as="geometry" />
        </mxCell>
        <mxCell id="amnLUIIQ8rCHtN5jiK-m-25" value="Base" style="text;html=1;align=center;verticalAlign=middle;resizable=0;points=[];autosize=1;strokeColor=none;fillColor=none;fontSize=40;" parent="amnLUIIQ8rCHtN5jiK-m-24" vertex="1">
          <mxGeometry x="700" y="830" width="110" height="60" as="geometry" />
        </mxCell>
        <mxCell id="amnLUIIQ8rCHtN5jiK-m-26" value="Elbow" style="text;html=1;align=center;verticalAlign=middle;resizable=0;points=[];autosize=1;strokeColor=none;fillColor=none;fontSize=40;" parent="amnLUIIQ8rCHtN5jiK-m-24" vertex="1">
          <mxGeometry x="720" y="280" width="130" height="60" as="geometry" />
        </mxCell>
        <mxCell id="amnLUIIQ8rCHtN5jiK-m-49" value="Hook" style="text;html=1;align=center;verticalAlign=middle;resizable=0;points=[];autosize=1;strokeColor=none;fillColor=none;fontSize=40;" parent="amnLUIIQ8rCHtN5jiK-m-24" vertex="1">
          <mxGeometry x="270" y="30" width="120" height="60" as="geometry" />
        </mxCell>
        <mxCell id="amnLUIIQ8rCHtN5jiK-m-50" value="Gripper" style="text;html=1;align=center;verticalAlign=middle;resizable=0;points=[];autosize=1;strokeColor=none;fillColor=none;fontSize=40;" parent="amnLUIIQ8rCHtN5jiK-m-24" vertex="1">
          <mxGeometry x="170" y="480" width="160" height="60" as="geometry" />
        </mxCell>
      </root>
    </mxGraphModel>
  </diagram>
</mxfile>
